<!-- Generated by IcoMoon.io -->
<svg version="1.1" xmlns="http://www.w3.org/2000/svg" width="32" height="32" viewBox="0 0 32 32">
<path d="M18.933 17.333c-0.884 0-1.6 0.716-1.6 1.6v2.4c0 0.736-0.597 1.333-1.333 1.333s-1.333-0.597-1.333-1.333v-2.4c0-0.884-0.716-1.6-1.6-1.6h-2.4c-0.736 0-1.333-0.597-1.333-1.333s0.597-1.333 1.333-1.333h2.4c0.884 0 1.6-0.716 1.6-1.6v-2.4c0-0.736 0.597-1.333 1.333-1.333s1.333 0.597 1.333 1.333v2.4c0 0.884 0.716 1.6 1.6 1.6h2.4c0.736 0 1.333 0.597 1.333 1.333s-0.597 1.333-1.333 1.333h-2.4z"></path>
</svg>
