<!-- Generated by IcoMoon.io -->
<svg version="1.1" xmlns="http://www.w3.org/2000/svg" width="6" height="32" viewBox="0 0 6 32">
<path d="M5.609 29.519l-4.426-12.493c-0.097-0.273-0.152-0.64-0.152-1.024s0.054-0.751 0.152-1.024l4.425-12.495c0.097-0.274 0.151-0.643 0.151-1.028s-0.054-0.754-0.151-1.028c-0.047-0.135-0.104-0.242-0.167-0.316s-0.13-0.111-0.198-0.111c-0.068 0-0.135 0.038-0.198 0.111s-0.119 0.181-0.167 0.316l-4.425 12.49c-0.291 0.823-0.454 1.93-0.454 3.082s0.163 2.26 0.454 3.083l4.425 12.49c0.047 0.136 0.104 0.243 0.167 0.317s0.13 0.111 0.198 0.111c0.068 0 0.135-0.038 0.198-0.111s0.119-0.181 0.167-0.317c0.097-0.274 0.151-0.643 0.151-1.028s-0.054-0.754-0.151-1.028z"></path>
</svg>
