<!-- Generated by IcoMoon.io -->
<svg version="1.1" xmlns="http://www.w3.org/2000/svg" width="32" height="32" viewBox="0 0 32 32">
<path fill="none" stroke-linejoin="round" stroke-linecap="round" stroke-miterlimit="4" stroke-width="2.6667" stroke="#000" d="M24 8v0.013"></path>
<path fill="none" stroke-linejoin="round" stroke-linecap="round" stroke-miterlimit="4" stroke-width="2.6667" stroke="#000" d="M24 17.333l-4.667-6.667c-0.449-0.812-0.679-1.727-0.666-2.655s0.267-1.836 0.739-2.636c0.471-0.799 1.143-1.462 1.949-1.922s1.718-0.702 2.646-0.702c0.928 0 1.84 0.242 2.646 0.702s1.477 1.123 1.949 1.922c0.471 0.799 0.726 1.708 0.739 2.636s-0.217 1.843-0.666 2.655l-4.667 6.667z"></path>
<path fill="none" stroke-linejoin="round" stroke-linecap="round" stroke-miterlimit="4" stroke-width="2.6667" stroke="#000" d="M14 6.333l-2-1-8 4v17.333l8-4 8 4 8-4v-2.667"></path>
<path fill="none" stroke-linejoin="round" stroke-linecap="round" stroke-miterlimit="4" stroke-width="2.6667" stroke="#000" d="M12 5.333v17.333"></path>
<path fill="none" stroke-linejoin="round" stroke-linecap="round" stroke-miterlimit="4" stroke-width="2.6667" stroke="#000" d="M20 20v6.667"></path>
</svg>
