<!-- Generated by IcoMoon.io -->
<svg version="1.1" xmlns="http://www.w3.org/2000/svg" width="32" height="32" viewBox="0 0 32 32">
<path d="M21.686 26.138l-9.222-9.37c-0.202-0.204-0.316-0.48-0.316-0.768s0.113-0.564 0.316-0.768l9.22-9.372c0.202-0.206 0.315-0.483 0.315-0.771s-0.113-0.565-0.315-0.771c-0.099-0.101-0.217-0.182-0.347-0.237s-0.27-0.083-0.412-0.083c-0.142 0-0.282 0.028-0.412 0.083s-0.248 0.135-0.347 0.237l-9.22 9.368c-0.606 0.617-0.945 1.447-0.945 2.312s0.339 1.695 0.945 2.312l9.22 9.368c0.099 0.102 0.217 0.182 0.347 0.237s0.271 0.084 0.413 0.084c0.142 0 0.282-0.028 0.412-0.084s0.249-0.136 0.348-0.237c0.202-0.206 0.315-0.483 0.315-0.771s-0.113-0.565-0.315-0.771z"></path>
</svg>
