<svg xmlns="http://www.w3.org/2000/svg" aria-hidden="true" style="position:absolute;width:0;height:0;overflow:hidden">
  <defs>
    <symbol id="icon-add_circle" viewBox="0 0 32 32">
      <path d="M18.933 17.333a1.6 1.6 0 0 0-1.6 1.6v2.4a1.333 1.333 0 0 1-2.666 0v-2.4a1.6 1.6 0 0 0-1.6-1.6h-2.4a1.333 1.333 0 0 1 0-2.666h2.4a1.6 1.6 0 0 0 1.6-1.6v-2.4a1.333 1.333 0 0 1 2.666 0v2.4a1.6 1.6 0 0 0 1.6 1.6h2.4a1.333 1.333 0 0 1 0 2.666h-2.4z"/>
    </symbol>
    <symbol id="icon-arrow_circle_left" viewBox="0 0 32 32">
      <path d="M16.934 18.533a1.321 1.321 0 0 1-1.867 1.867l-3.269-3.269a1.6 1.6 0 0 1 0-2.263l3.269-3.269a1.321 1.321 0 0 1 1.867 1.867l-1.2 1.2h4.267a1.333 1.333 0 0 1 0 2.666h-4.267l1.2 1.2z"/>
    </symbol>
    <symbol id="icon-arrow_circle_left-1" viewBox="0 0 32 32">
      <path d="M15.066 13.467a1.321 1.321 0 0 1 1.867-1.867l3.269 3.269a1.6 1.6 0 0 1 0 2.263L16.933 20.4a1.32 1.32 0 1 1-1.867-1.867l1.2-1.2h-4.267a1.333 1.333 0 0 1 0-2.666h4.267l-1.2-1.2z"/>
    </symbol>
    <symbol id="icon-arrow-left" viewBox="0 0 6 32">
      <path d="M5.609 29.519 1.183 17.026c-.097-.273-.152-.64-.152-1.024s.054-.751.152-1.024L5.608 2.483c.097-.274.151-.643.151-1.028S5.705.701 5.608.427C5.561.292 5.504.185 5.441.111S5.311 0 5.243 0s-.135.038-.198.111-.119.181-.167.316L.453 12.917c-.291.823-.454 1.93-.454 3.082s.163 2.26.454 3.083l4.425 12.49c.047.136.104.243.167.317s.13.111.198.111.135-.038.198-.111.119-.181.167-.317c.097-.274.151-.643.151-1.028s-.054-.754-.151-1.028z"/>
    </symbol>
    <symbol id="icon-arrow-right" viewBox="0 0 6 32">
      <path d="m.151 29.519 4.426-12.493c.097-.273.152-.64.152-1.024s-.054-.751-.152-1.024L.152 2.483C.055 2.209.001 1.84.001 1.455S.055.701.152.427C.199.292.256.185.319.111S.449 0 .517 0s.135.038.198.111.119.181.167.316l4.425 12.49c.291.823.454 1.93.454 3.082s-.163 2.26-.454 3.083L.882 31.572c-.047.136-.104.243-.167.317S.585 32 .517 32s-.135-.038-.198-.111-.119-.181-.167-.317c-.097-.274-.151-.643-.151-1.028s.054-.754.151-1.028z"/>
    </symbol>
    <symbol id="icon-email" viewBox="0 0 32 32">
      <path stroke-linecap="round" stroke-linejoin="round" stroke-width="2.667" d="M25.333 6.667H6.666a2.667 2.667 0 0 0-2.667 2.667v13.333a2.667 2.667 0 0 0 2.667 2.667h18.667A2.667 2.667 0 0 0 28 22.667V9.334a2.667 2.667 0 0 0-2.667-2.667z"/>
      <path stroke-linecap="round" stroke-linejoin="round" stroke-width="2.667" d="m4 9.333 12 8 12-8"/>
    </symbol>
    <symbol id="icon-map" viewBox="0 0 32 32">
      <path stroke-linecap="round" stroke-linejoin="round" stroke-width="2.667" d="M24 8v.013M24 17.333l-4.667-6.667a5.332 5.332 0 0 1 4.668-7.915 5.338 5.338 0 0 1 4.595 2.624 5.34 5.34 0 0 1 .073 5.291l-4.667 6.667z"/>
      <path stroke-linecap="round" stroke-linejoin="round" stroke-width="2.667" d="m14 6.333-2-1-8 4v17.333l8-4 8 4 8-4v-2.667M12 5.333v17.333M20 20v6.667"/>
    </symbol>
    <symbol id="icon-oui_arrow-left" viewBox="0 0 32 32">
      <path d="m21.686 26.138-9.222-9.37a1.092 1.092 0 0 1 0-1.536l9.22-9.372a1.101 1.101 0 0 0-.347-1.779 1.057 1.057 0 0 0-1.171.237l-9.22 9.368a3.299 3.299 0 0 0 0 4.624l9.22 9.368a1.056 1.056 0 0 0 1.172.237 1.092 1.092 0 0 0 .663-1.008c0-.288-.113-.565-.315-.771z"/>
    </symbol>
    <symbol id="icon-oui_arrow-right" viewBox="0 0 32 32">
      <path d="m10.314 26.138 9.222-9.37a1.092 1.092 0 0 0 0-1.536l-9.22-9.372a1.101 1.101 0 0 1 .347-1.779 1.057 1.057 0 0 1 1.171.237l9.22 9.368a3.299 3.299 0 0 1 0 4.624l-9.22 9.368a1.056 1.056 0 0 1-1.173.237 1.101 1.101 0 0 1-.347-1.779z"/>
    </symbol>
  </defs>
</svg>
